<svg xmlns="http://www.w3.org/2000/svg" xmlns:xlink="http://www.w3.org/1999/xlink" version="1.1" width="1000" height="1000" viewBox="0 0 1000 1000" xml:space="preserve">
<desc>Created with Fabric.js 3.5.0</desc>
<defs>
</defs>
<rect x="0" y="0" width="100%" height="100%" fill="rgba(255,255,255,0)"/>
<g transform="matrix(0.4879 0 0 0.4879 500.002 500.0009)" id="594099">
<g style="">
		<g transform="matrix(0.9671 0 0 0.9671 -4.3378 6.3428)" id="363833">
<path style="stroke: rgb(255,255,255); stroke-width: 5; stroke-dasharray: none; stroke-linecap: butt; stroke-dashoffset: 0; stroke-linejoin: miter; stroke-miterlimit: 4; is-custom-font: none; font-file-url: none; fill: rgb(158,69,107); fill-rule: nonzero; opacity: 1;" transform=" translate(-0.245, 0.08)" d="M -85.08 -0.95 Q -84.52 -0.39 -83.34 -0.39 Q -82.16 -0.39 -81.33 -0.88 L -81.33 -0.88 Q -83.13 -11.42 -83.76 -13.36 L -83.76 -13.36 Q -84.52 -15.37 -86.05 -15.37 L -86.05 -15.37 Q -86.74 -15.37 -87.71 -14.95 L -87.71 -14.95 L -85.08 -0.95 Z M -98.8 19.85 L -98.8 19.85 Q -99.5 20.83 -99.5 21.66 L -99.5 21.66 Q -99.5 23.67 -95.72 25.02 Q -91.94 26.37 -86.53 26.72 L -86.53 26.72 Q -85.63 36.7 -84.59 38.09 L -84.59 38.09 Q -85.91 40.66 -91.87 43.26 Q -97.83 45.86 -105.32 45.86 L -105.32 45.86 Q -115.24 45.86 -122.31 41.59 Q -129.38 37.33 -129.38 30.6 L -129.38 30.6 Q -129.38 28.8 -129.03 27.41 L -129.03 27.41 L -114.27 -38.6 Q -108.72 -42.13 -101.02 -44.14 Q -93.33 -46.15 -85.01 -46.15 L -85.01 -46.15 Q -73.08 -46.15 -64.62 -42.13 L -64.62 -42.13 Q -54.98 -37.56 -52.9 -28.89 L -52.9 -28.89 L -37.09 36.5 Q -44.31 45.86 -60.6 45.86 L -60.6 45.86 Q -68.5 45.86 -73.98 43.01 Q -79.46 40.17 -80.36 34.9 L -80.36 34.9 L -81.89 26.44 Q -77.73 26.37 -73.84 24.85 Q -69.96 23.32 -69.96 21.66 L -69.96 21.66 Q -69.96 20.55 -70.86 19.85 L -70.86 19.85 Q -73.5 21.73 -77.31 22.7 Q -81.12 23.67 -84.38 23.67 L -84.38 23.67 Q -93.74 23.67 -98.8 19.85 Z M 2.01 19.37 L 2.01 19.37 Q 4.3 18.95 4.3 17.05 Q 4.3 15.14 3.09 12.75 Q 1.87 10.36 -0.49 8.21 L -0.49 8.21 Q -6.66 2.66 -17.2 2.66 L -17.2 2.66 Q -22.4 2.66 -26.9 4.39 L -26.9 4.39 Q -31.69 1.97 -34.53 -3.3 Q -37.37 -8.57 -37.37 -14.67 L -37.37 -14.67 Q -37.37 -30.62 -24.06 -39.29 L -24.06 -39.29 Q -12.62 -46.71 4.16 -46.71 L 4.16 -46.71 Q 16.64 -46.71 25.17 -44.04 Q 33.7 -41.37 39.11 -37.21 L 39.11 -37.21 Q 40.7 -32.63 40.7 -27.71 Q 40.7 -22.79 39.38 -18.77 Q 38.07 -14.74 35.57 -12.32 L 35.57 -12.32 Q 33.21 -14.05 27.04 -15.85 Q 20.87 -17.66 15.81 -17.66 Q 10.75 -17.66 9.05 -17.03 Q 7.35 -16.41 7.35 -15.09 L 7.35 -15.09 Q 7.35 -14.47 7.56 -13.91 L 7.56 -13.91 Q 9.98 -14.54 13.8 -14.54 L 13.8 -14.54 Q 27.32 -14.54 35.85 -8.16 L 35.85 -8.16 Q 45.9 -0.53 45.9 14.72 L 45.9 14.72 Q 45.9 28.18 35.01 37.05 L 35.01 37.05 Q 23.23 46.55 3.33 46.55 L 3.33 46.55 Q -7.63 46.55 -15.67 44.92 Q -23.71 43.29 -31.34 39.2 L -31.34 39.2 Q -36.54 31.64 -36.54 23.84 Q -36.54 16.04 -31.2 10.91 Q -25.86 5.78 -18.06 5.78 Q -10.26 5.78 -5.3 8.97 Q -0.35 12.16 2.01 19.37 Z M 86.32 -31.8 L 86.32 -31.8 L 84.1 12.23 Q 84.94 12.44 85.56 12.44 L 85.56 12.44 Q 87.85 12.44 88.13 8.97 L 88.13 8.97 L 91.18 -41.51 Q 93.33 -43.38 99.08 -44.84 L 99.08 -44.84 Q 104.56 -46.08 109 -46.08 L 109 -46.08 Q 119.47 -46.08 124.67 -41.3 Q 129.87 -36.52 129.87 -28.96 L 129.87 -28.96 Q 129.87 -24.73 126.43 -9.99 Q 123 4.74 116.55 29.84 L 116.55 29.84 Q 114.2 38.65 105.95 42.53 L 105.95 42.53 Q 98.73 45.86 86.88 45.86 L 86.88 45.86 Q 79.39 45.86 72.73 44.19 Q 66.08 42.53 62.06 39.41 L 62.06 39.41 Q 56.58 27.34 51.03 6.23 Q 45.48 -14.88 42.71 -36.52 L 42.71 -36.52 Q 49.23 -46.15 63.44 -46.15 L 63.44 -46.15 Q 81.75 -46.15 86.32 -31.8 Z" stroke-linecap="round"/>
</g>
		<g transform="matrix(0.1625 0 0 0.1625 -86.9155 -1.476)" id="103478">
<path style="stroke: none; stroke-width: 0; stroke-dasharray: none; stroke-linecap: butt; stroke-dashoffset: 0; stroke-linejoin: miter; stroke-miterlimit: 4; is-custom-font: none; font-file-url: none; fill: rgb(0,0,0); fill-rule: nonzero; opacity: 1;" vector-effect="non-scaling-stroke" transform=" translate(-256, -256)" d="M 465.4 247 c -2.2 -22 -12.4 -43 -28.9 -58.4 c -17.1 -15.9 -39.3 -24.7 -62.7 -24.7 c -41.5 0 -77.3 27.4 -88.5 67 c -7 -7 -18.5 -11.7 -29.3 -11.7 c -10.8 0 -22.3 4.7 -29.3 11.7 c -11.2 -39.6 -47 -67 -88.5 -67 c -23.3 0 -45.6 8.7 -62.7 24.6 C 59 204 48.8 225 46.6 247 H 32 v 18 h 14.6 c 2.2 22 12.4 43 28.9 58.4 c 17.1 15.9 39.3 24.7 62.7 24.7 c 50.8 0 92.1 -41.2 92.1 -92 c 0 -0.1 0 -0.1 0 -0.1 h 0 c 0 -9.9 11.5 -21.6 25.7 -21.6 s 25.7 11.7 25.7 21.6 h 0 c 0 0 0 0 0 0.1 c 0 50.8 41.3 92 92.1 92 c 23.3 0 45.6 -8.7 62.7 -24.7 c 16.5 -15.4 26.7 -36.5 28.9 -58.5 H 480 v -18 H 465.4 z" stroke-linecap="round"/>
</g>
		<g transform="matrix(0.0908 0 0 0.0908 -86.9414 -34.97)" id="484712">
<path style="stroke: none; stroke-width: 0; stroke-dasharray: none; stroke-linecap: butt; stroke-dashoffset: 0; stroke-linejoin: miter; stroke-miterlimit: 4; is-custom-font: none; font-file-url: none; fill: rgb(0,0,0); fill-rule: nonzero; opacity: 1;" vector-effect="non-scaling-stroke" transform=" translate(-319.7451, -240)" d="M 489.1 264.9 C 480.5 207.5 450.5 32 392.3 32 c -14 0 -26.58 5.875 -37.08 14 c -20.75 15.87 -49.62 15.87 -70.5 0 C 274.2 38 261.7 32 247.7 32 c -58.25 0 -88.27 175.5 -97.77 232.9 C 188.7 277.5 243.7 288 319.1 288 S 451.2 277.5 489.1 264.9 z M 632.9 227.7 c -6.125 -4.125 -14.2 -3.51 -19.7 1.49 c -1 0.875 -101.3 90.77 -293.1 90.77 c -190.9 0 -292.2 -89.99 -293.2 -90.86 c -5.5 -4.875 -13.71 -5.508 -19.71 -1.383 c -6.125 4.125 -8.587 11.89 -6.087 18.77 C 1.749 248.5 78.37 448 319.1 448 s 318.2 -199.5 318.1 -201.5 C 641.5 239.6 639 231.9 632.9 227.7 z" stroke-linecap="round"/>
</g>
		<g transform="matrix(0.6189 0 0 0.6189 113.6626 -25.3905)" id="Shape">
<path style="stroke: none; stroke-width: 1; stroke-dasharray: none; stroke-linecap: butt; stroke-dashoffset: 0; stroke-linejoin: miter; stroke-miterlimit: 4; is-custom-font: none; font-file-url: none; fill: rgb(246,171,39); fill-rule: evenodd; opacity: 1;" vector-effect="non-scaling-stroke" transform=" translate(-30, -28.9891)" d="M 31.7569 1.14435 L 39.2006 16.94809 C 39.4742047 17.5450605 40.0274966 17.9662669 40.67576 18.07109 L 57.32037 20.60534 C 58.0728338 20.7512497 58.6840769 21.2991656 58.9110909 22.0312558 C 59.1381048 22.7633461 58.9440977 23.560962 58.4062 24.107 L 46.36205 36.40845 C 45.8969861 36.8906851 45.6879532 37.5647752 45.79858 38.22553 L 48.64182 55.59553 C 48.7969313 56.3422303 48.5093863 57.1116407 47.9025754 57.5735945 C 47.2957646 58.0355484 46.4775729 58.1079148 45.7991 57.75964 L 30.9117 49.55864 C 30.3445605 49.2442297 29.6554395 49.2442297 29.0883 49.55864 L 14.2009 57.75964 C 13.5224271 58.1079148 12.7042354 58.0355484 12.0974246 57.5735945 C 11.4906137 57.1116407 11.2030687 56.3422303 11.35818 55.59553 L 14.20142 38.22553 C 14.3120468 37.5647752 14.1030139 36.8906851 13.63795 36.40845 L 1.5938 24.107 C 1.05593046 23.5609597 0.861941478 22.7633618 1.08895299 22.0312898 C 1.31596449 21.2992177 1.92718692 20.7513115 2.67963 20.60539 L 19.32424 18.0711 C 19.9725034 17.9662769 20.5257953 17.5450705 20.7994 16.9481 L 28.2431 1.14435 C 28.5505421 0.448721422 29.2394609 -0.00000516717968 30 -0.00000516717968 C 30.7605391 -0.00000516717968 31.4494579 0.448721422 31.7569 1.14435 Z" stroke-linecap="round"/>
</g>
		<g transform="matrix(0.6189 0 0 0.6189 106.9731 -32.0678)" id="Shape">
<path style="stroke: none; stroke-width: 1; stroke-dasharray: none; stroke-linecap: butt; stroke-dashoffset: 0; stroke-linejoin: miter; stroke-miterlimit: 4; is-custom-font: none; font-file-url: none; fill: rgb(244,205,30); fill-rule: evenodd; opacity: 1;" vector-effect="non-scaling-stroke" transform=" translate(-19.1913, -18.2)" d="M 37.39 13.11 C 32.5890747 15.6770414 28.15587 18.8791741 24.21 22.63 C 20.0044812 26.6560517 16.436883 31.2993247 13.63 36.4 L 1.59009 24.11 C 1.05224467 23.5636351 0.858777828 22.7655877 1.086713 22.0335783 C 1.31464817 21.3015689 1.92698179 20.7544339 2.67993 20.61 L 19.32007 18.07 C 19.967444 17.9624793 20.520694 17.5438036 20.80007 16.95 L 28.24 1.14 C 28.5507895 0.446404951 29.2399578 0.0000195277886 30 0.0000195277886 C 30.7600422 0.0000195277886 31.4492105 0.446404951 31.76 1.14 L 37.39 13.11 Z" stroke-linecap="round"/>
</g>
</g>
</g>
</svg>