<svg id="visual" viewBox="0 0 1920 1080" width="1920" height="1080" xmlns="http://www.w3.org/2000/svg" xmlns:xlink="http://www.w3.org/1999/xlink" version="1.1"><rect x="0" y="0" width="1920" height="1080" fill="#001220"></rect><path d="M0 697L45.7 708.2C91.3 719.3 182.7 741.7 274.2 738C365.7 734.3 457.3 704.7 548.8 692.3C640.3 680 731.7 685 823 692.8C914.3 700.7 1005.7 711.3 1097 722.8C1188.3 734.3 1279.7 746.7 1371.2 750.8C1462.7 755 1554.3 751 1645.8 732C1737.3 713 1828.7 679 1874.3 662L1920 645L1920 1081L1874.3 1081C1828.7 1081 1737.3 1081 1645.8 1081C1554.3 1081 1462.7 1081 1371.2 1081C1279.7 1081 1188.3 1081 1097 1081C1005.7 1081 914.3 1081 823 1081C731.7 1081 640.3 1081 548.8 1081C457.3 1081 365.7 1081 274.2 1081C182.7 1081 91.3 1081 45.7 1081L0 1081Z" fill="#3e5f9d"></path><path d="M0 815L45.7 804.3C91.3 793.7 182.7 772.3 274.2 780.7C365.7 789 457.3 827 548.8 821.2C640.3 815.3 731.7 765.7 823 743.7C914.3 721.7 1005.7 727.3 1097 748.8C1188.3 770.3 1279.7 807.7 1371.2 826.8C1462.7 846 1554.3 847 1645.8 846.5C1737.3 846 1828.7 844 1874.3 843L1920 842L1920 1081L1874.3 1081C1828.7 1081 1737.3 1081 1645.8 1081C1554.3 1081 1462.7 1081 1371.2 1081C1279.7 1081 1188.3 1081 1097 1081C1005.7 1081 914.3 1081 823 1081C731.7 1081 640.3 1081 548.8 1081C457.3 1081 365.7 1081 274.2 1081C182.7 1081 91.3 1081 45.7 1081L0 1081Z" fill="#3b538b"></path><path d="M0 878L45.7 870.2C91.3 862.3 182.7 846.7 274.2 839.2C365.7 831.7 457.3 832.3 548.8 837.3C640.3 842.3 731.7 851.7 823 863.3C914.3 875 1005.7 889 1097 877.8C1188.3 866.7 1279.7 830.3 1371.2 820.7C1462.7 811 1554.3 828 1645.8 841.7C1737.3 855.3 1828.7 865.7 1874.3 870.8L1920 876L1920 1081L1874.3 1081C1828.7 1081 1737.3 1081 1645.8 1081C1554.3 1081 1462.7 1081 1371.2 1081C1279.7 1081 1188.3 1081 1097 1081C1005.7 1081 914.3 1081 823 1081C731.7 1081 640.3 1081 548.8 1081C457.3 1081 365.7 1081 274.2 1081C182.7 1081 91.3 1081 45.7 1081L0 1081Z" fill="#374879"></path><path d="M0 920L45.7 917C91.3 914 182.7 908 274.2 906.3C365.7 904.7 457.3 907.3 548.8 909.8C640.3 912.3 731.7 914.7 823 921.5C914.3 928.3 1005.7 939.7 1097 931.8C1188.3 924 1279.7 897 1371.2 889.5C1462.7 882 1554.3 894 1645.8 902.8C1737.3 911.7 1828.7 917.3 1874.3 920.2L1920 923L1920 1081L1874.3 1081C1828.7 1081 1737.3 1081 1645.8 1081C1554.3 1081 1462.7 1081 1371.2 1081C1279.7 1081 1188.3 1081 1097 1081C1005.7 1081 914.3 1081 823 1081C731.7 1081 640.3 1081 548.8 1081C457.3 1081 365.7 1081 274.2 1081C182.7 1081 91.3 1081 45.7 1081L0 1081Z" fill="#323d68"></path><path d="M0 967L45.7 976.2C91.3 985.3 182.7 1003.7 274.2 1012C365.7 1020.3 457.3 1018.7 548.8 1005.7C640.3 992.7 731.7 968.3 823 960.7C914.3 953 1005.7 962 1097 963.3C1188.3 964.7 1279.7 958.3 1371.2 962.8C1462.7 967.3 1554.3 982.7 1645.8 995.8C1737.3 1009 1828.7 1020 1874.3 1025.5L1920 1031L1920 1081L1874.3 1081C1828.7 1081 1737.3 1081 1645.8 1081C1554.3 1081 1462.7 1081 1371.2 1081C1279.7 1081 1188.3 1081 1097 1081C1005.7 1081 914.3 1081 823 1081C731.7 1081 640.3 1081 548.8 1081C457.3 1081 365.7 1081 274.2 1081C182.7 1081 91.3 1081 45.7 1081L0 1081Z" fill="#2c3357"></path></svg>