<svg id="visual" viewBox="0 0 1920 1080" width="1920" height="1080" xmlns="http://www.w3.org/2000/svg" xmlns:xlink="http://www.w3.org/1999/xlink" version="1.1"><rect x="0" y="0" width="1920" height="1080" fill="#141320"></rect><path d="M0 766L274 806L549 781L823 725L1097 700L1371 733L1646 668L1920 683L1920 1081L1646 1081L1371 1081L1097 1081L823 1081L549 1081L274 1081L0 1081Z" fill="#3e5f9d"></path><path d="M0 728L274 711L549 795L823 741L1097 856L1371 806L1646 727L1920 774L1920 1081L1646 1081L1371 1081L1097 1081L823 1081L549 1081L274 1081L0 1081Z" fill="#3b538b"></path><path d="M0 797L274 835L549 811L823 883L1097 831L1371 831L1646 854L1920 799L1920 1081L1646 1081L1371 1081L1097 1081L823 1081L549 1081L274 1081L0 1081Z" fill="#374879"></path><path d="M0 898L274 969L549 913L823 970L1097 952L1371 930L1646 959L1920 974L1920 1081L1646 1081L1371 1081L1097 1081L823 1081L549 1081L274 1081L0 1081Z" fill="#323d68"></path><path d="M0 984L274 966L549 959L823 949L1097 996L1371 1020L1646 951L1920 996L1920 1081L1646 1081L1371 1081L1097 1081L823 1081L549 1081L274 1081L0 1081Z" fill="#2c3357"></path></svg>