<svg id="visual" viewBox="0 0 1920 1080" width="1920" height="1080" xmlns="http://www.w3.org/2000/svg" xmlns:xlink="http://www.w3.org/1999/xlink" version="1.1"><rect x="0" y="0" width="1920" height="1080" fill="#141320"></rect><path d="M0 677L274 701L549 790L823 744L1097 645L1371 679L1646 717L1920 789L1920 1081L1646 1081L1371 1081L1097 1081L823 1081L549 1081L274 1081L0 1081Z" fill="#3e5f9d"></path><path d="M0 808L274 860L549 769L823 865L1097 837L1371 804L1646 823L1920 746L1920 1081L1646 1081L1371 1081L1097 1081L823 1081L549 1081L274 1081L0 1081Z" fill="#3b538b"></path><path d="M0 914L274 825L549 889L823 867L1097 856L1371 814L1646 901L1920 791L1920 1081L1646 1081L1371 1081L1097 1081L823 1081L549 1081L274 1081L0 1081Z" fill="#374879"></path><path d="M0 924L274 906L549 878L823 922L1097 968L1371 878L1646 961L1920 969L1920 1081L1646 1081L1371 1081L1097 1081L823 1081L549 1081L274 1081L0 1081Z" fill="#323d68"></path><path d="M0 988L274 993L549 971L823 998L1097 947L1371 1019L1646 998L1920 1020L1920 1081L1646 1081L1371 1081L1097 1081L823 1081L549 1081L274 1081L0 1081Z" fill="#2c3357"></path></svg>